<svg xmlns="http://www.w3.org/2000/svg" viewBox="43.693766999999994 -49.188912 543.9251378976661 719.9807918706055"> <svg xmlns="http://www.w3.org/2000/svg" xmlns:xlink="http://www.w3.org/1999/xlink" xmlnsSerif="http://www.serif.com/" viewBox="0.00006759446114301682 0.00020168721675872803 573.7799072265625 741.4968872070312" version="1.1" xml:space="preserve" height="521.9934232073315" width="403.92513789766605" y="20.811088" x="113.693767" preserveAspectRatio="xMinYMin" fill-rule="evenodd" clip-rule="evenodd" stroke-linejoin="round" stroke-miterlimit="2" style="overflow: visible;"><path d="M160.772,453.542c-48.175,0 -89.04,56.836 -38.104,120.003c-0,-0 -46,-44 -46,-110c-0,-66 59.611,-72 103.555,-63c43.945,9 129.801,-18.697 103.123,-150.233c-0,-0 27.322,45.659 31.822,113.696c2.183,33.012 -7.357,66.677 -21.415,90.067c41.002,-35.153 35.412,-90.067 35.412,-90.067c36.259,65.814 114.523,38.034 141.333,65.251c44,44.667 2,106 2,106c11.334,-20.667 7.334,-93.333 -78,-93.333c-59.662,-0 -97.681,22.56 -118.767,34.129c-0.72,0.601 -1.444,1.174 -2.17,1.719c10.1,7.377 19.803,14.576 29.181,21.385c27.887,-21.819 59.905,-35.031 87.423,-35.031c38.324,0 59.577,17.476 67.341,36.811c10.775,26.834 -3.293,59.379 -37.769,66.557c-19.422,4.044 -38.876,0.834 -59.109,-7.63c-18.01,-7.535 -36.753,-19.393 -56.885,-33.526c-14.878,14.064 -27.745,31.028 -36.572,49.661c-19.42,40.999 -18.457,90.472 24.759,135.81c-4.598,-15.11 -40.922,-82.457 19.027,-153.957c37.084,30.009 44.238,62.809 39.191,91.927c-8.209,47.357 -51.19,85.269 -51.19,85.269l-7.364,6.447l-7.137,-6.698c-59.093,-55.456 -60.81,-117.359 -36.801,-168.043c9.382,-19.808 22.836,-37.832 38.451,-53.056c-10.541,-7.669 -21.479,-15.765 -32.899,-24.026c-37.245,-26.943 -67.956,-36.132 -92.436,-36.132Zm160.11,58.512c11.337,7.831 22.229,14.817 32.817,20.531c21.519,11.614 41.525,17.957 61.636,13.77c19.566,-4.074 28.247,-22.14 22.132,-37.369c-5.333,-13.28 -20.979,-23.263 -47.302,-23.263c-21.874,0 -46.813,9.894 -69.283,26.331Zm-73.577,-0c-11.337,7.831 -22.229,14.817 -32.817,20.531c-21.519,11.614 -41.525,17.957 -61.636,13.77c-19.566,-4.074 -28.247,-22.14 -22.131,-37.369c5.332,-13.28 20.979,-23.263 47.301,-23.263c21.874,0 46.813,9.894 69.283,26.331Zm44.541,-280.413c13.827,14.232 29.64,23.23 45.48,28.384c11.293,3.675 22.355,4.662 32.682,3.526c5.182,-0.57 10.043,-1.935 14.713,-3.669c4.631,-1.719 9.037,-3.8 13.099,-6.756c6.138,-4.465 11.744,-9.854 16.276,-17.618c4.206,-7.206 7.938,-15.039 10.44,-25.2c1.598,9.062 1.929,16.861 1.177,24.429c-0.383,3.863 -1.2,7.335 -2.201,10.778c-2.601,8.945 -7.089,16.216 -12.676,22.232c-5.141,5.535 -11.508,9.606 -18.425,12.311c-6.655,2.603 -13.959,3.79 -21.437,3.685c-12.898,-0.18 -26.507,-3.732 -39.269,-11.116c-15.376,-8.895 -29.273,-22.663 -39.859,-40.986Zm21,49c13.444,13.591 27.94,21.845 42.231,26.564c10.476,3.459 20.565,4.184 29.978,2.984c4.725,-0.602 9.136,-1.967 13.405,-3.619c4.259,-1.648 8.336,-3.584 12.127,-6.285c5.822,-4.147 11.214,-8.99 15.671,-15.949c4.269,-6.664 8.089,-13.753 10.778,-23.028c1.391,8.438 1.584,15.706 0.753,22.886c-0.416,3.598 -1.243,6.82 -2.236,10.057c-2.528,8.237 -6.753,15.003 -11.992,20.691c-4.786,5.198 -10.705,9.071 -17.124,11.692c-6.257,2.555 -13.126,3.775 -20.16,3.734c-12.117,-0.071 -24.919,-3.336 -36.972,-10.63c-13.797,-8.348 -26.371,-21.269 -36.459,-39.097Zm-136.063,-153.183l-33.104,-88.295c-0.504,-0.845 -0.326,-1.735 0.49,-2.446c0.83,-0.742 2.06,-1.083 3.38,-0.934c15.106,1.467 25.72,9.665 27.41,20.621c5.426,-6.316 20.74,-5.219 23.838,4.106c0.148,0.489 0.015,1.008 -0.37,1.349c-0.386,0.356 -0.905,0.445 -1.394,0.222c-3.573,-1.616 -8.539,0.104 -11.845,3.766c-4.581,5.114 -4.862,11.103 -2.728,16.411c6.582,16.277 28.612,17.67 43.392,14.483c11.178,-2.386 20.354,-8.909 20.903,-20.428c0.37,-7.546 -4.655,-16.722 -11.623,-19.909c-5.559,-2.535 -11.652,-1.661 -14.973,0.444c-0.4,0.252 -0.86,0.267 -1.275,0.06c-0.415,-0.208 -0.681,-0.608 -0.696,-1.068c-0.579,-9.31 8.109,-18.338 25.809,-12.586c-8.909,-16.678 1.26,-36.706 13.906,-43.021c0.37,-0.178 0.771,-0.178 1.141,0c12.66,6.315 22.83,26.343 13.906,43.021c17.715,-5.752 26.387,3.276 25.824,12.586c-0.029,0.46 -0.281,0.86 -0.697,1.068c-0.415,0.207 -0.874,0.192 -1.274,-0.06c-3.321,-2.105 -9.414,-2.979 -14.988,-0.444c-6.953,3.187 -11.978,12.363 -11.623,19.909c0.549,11.519 9.725,18.042 20.903,20.428c14.795,3.187 36.824,1.794 43.407,-14.483c2.119,-5.308 1.853,-11.297 -2.743,-16.411c-3.291,-3.662 -8.257,-5.382 -11.845,-3.766c-0.474,0.223 -1.008,0.134 -1.393,-0.222c-0.386,-0.341 -0.519,-0.86 -0.356,-1.349c3.083,-9.325 18.412,-10.422 23.823,-4.106c1.69,-10.956 12.304,-19.154 27.425,-20.621c1.32,-0.149 2.55,0.192 3.366,0.934c0.815,0.711 0.993,1.601 0.489,2.446l-33.089,88.295c-40.177,-20.731 -128.375,-21.778 -163.396,-0Zm7.91,24.485l-5.506,-13.984c17.054,-12.62 48.325,-19.067 80.363,-18.348c29.596,0.663 59.738,7.358 79.588,19.961l-4.739,14.26c-18.159,-11.529 -48.067,-20.577 -75.142,-21.184c-28.767,-0.645 -59.251,7.964 -74.564,19.295Zm15.139,5.649c12.076,-2.272 23.681,-0.839 35.148,2.816c13.146,4.19 25.795,11.308 38.272,19.338c11.777,7.579 23.225,15.871 34.573,23.184c7.624,4.913 15.188,9.201 22.713,12.538c7.368,3.267 14.676,5.606 22.294,5.589c7.822,0.46 14.59,-0.273 20.524,-2.04c7.117,-2.12 13.044,-5.229 17.894,-9.67c11.491,-10.522 17.785,-25.474 19.915,-40.86c1.712,11.752 1.199,23.863 -2.448,35.172c-1.676,5.198 -4.161,9.963 -7.265,14.474c-6.065,8.814 -14.945,15.728 -26.765,20.121c-6.351,2.361 -13.651,3.523 -21.855,3.972c-5.559,0.074 -11.068,-0.554 -16.477,-2.001c-7.307,-1.954 -14.463,-5.249 -21.468,-9.455c-4.924,-2.958 -9.798,-6.335 -14.588,-10.088c-10.017,-7.847 -19.816,-16.958 -29.768,-25.921c-21.476,-19.341 -43.348,-37.498 -70.699,-37.169Zm18.333,-5c16.394,-3.517 30.308,-2.979 43.329,-0.479c12.514,2.403 23.778,6.621 35.028,11.026c7.188,2.815 14.251,5.643 21.572,8.141c5.594,1.909 11.344,3.391 17.37,4.72c5.478,1.208 11.144,2.473 17.368,2.757c6.125,0.712 12.041,0.728 17.327,-1.42c2.28,-0.925 4.509,-1.816 6.512,-3.399c6.282,-4.964 11.11,-12.53 13.494,-25.118c2.787,14.715 0.324,25.109 -4.714,32.996c-4.971,7.782 -12.886,12.096 -21.724,14.825c-3.474,1.072 -7.135,1.504 -10.895,1.885c-5.472,0.318 -10.686,0.261 -15.699,-0.373c-5.313,-0.672 -10.373,-1.944 -15.213,-3.553c-6.226,-2.07 -12.097,-4.712 -17.779,-7.698c-8.116,-4.266 -15.789,-9.082 -23.731,-13.832c-17.378,-10.395 -35.431,-20.096 -62.245,-20.478Zm-31.803,15.895c-0,-0 89.076,2.349 87.484,84.333c-1.334,68.667 -34.04,69.778 -67.04,77.778c-11.665,2.828 -31.815,2.586 -25.822,-7.911c7.417,-12.993 3.644,-17.467 3.644,-17.467c-3.535,-4.931 -11.182,0.45 -13.889,-3.022c-4.003,-5.135 2.289,-11.711 19.289,-7.711c0,-0 -4.612,-5.085 -10.52,-8.108c-7.823,-4.003 -10.192,3.252 -13.48,-0.892c0,-0 5,-5 5,-11.2c0,-6.2 -15.311,-3.4 -16.511,-11.2c-1.2,-7.8 17.8,-16 17.8,-36.2c0,-20.2 -10.311,-33.024 14.045,-58.4Zm39.528,32.475c-0,-0 -9.222,-5.667 -19.778,-5.667c-10.555,-0 -22.333,5.555 -22.333,13.778c-0,8.222 7,13.555 6.667,18.666c-0.334,5.111 -5,8.223 -10.223,8.667c0,-0 11.889,7 28.111,-2.111c16.223,-9.111 23.556,-26.667 23.556,-26.667c-0,0 -13.222,12 -36.444,19.111c-0,0 -4.112,-12.444 4.333,-21.444c8.444,-9 21.333,-6 26.111,-4.333Zm208.221,-32.231c40.793,23.302 75.195,56.593 99.639,96.868c24.136,39.768 38.188,86.171 39.962,135.914c0.467,22.05 -1.469,43.59 -5.917,64.284c-3.057,14.226 -7.206,28.086 -12.592,41.337c-9.105,22.401 -21.249,43.302 -35.974,62.042c-18.378,23.389 -40.56,43.535 -65.618,59.555c-24.413,15.607 -51.368,26.985 -80.062,34.136c26.706,-11.039 50.787,-26.284 72.526,-44.425c21.455,-17.904 39.942,-38.854 55.465,-62.094c12.15,-18.192 22.233,-37.774 30.215,-58.484c5.855,-15.192 10.714,-30.912 14.054,-47.228c3.257,-15.912 5.373,-32.295 5.752,-49.123c1.666,-46.726 -8.908,-90.935 -28.532,-129.979c-20.694,-41.173 -51.183,-76.583 -88.918,-102.803Zm-232.562,494.136c-57.113,-16.082 -106.992,-49.975 -142.924,-95.689c-21.805,-27.74 -38.359,-59.81 -48.302,-94.716c-6.434,-22.589 -9.804,-46.397 -10.314,-70.949c-0.07,-9.775 0.263,-19.447 1.244,-28.969c1.507,-14.614 4.188,-28.914 8.127,-42.707c6.696,-23.451 16.601,-45.532 29.142,-65.802c10.083,-16.296 21.784,-31.385 35.065,-45.016c19.677,-20.196 42.406,-36.987 67.4,-50.288c-22.257,16.475 -41.508,36.211 -58.002,58.313c-10.761,14.419 -20.093,29.798 -28.09,46.055c-9.727,19.774 -17.005,40.8 -22.047,62.777c-2.93,12.772 -5.115,25.833 -6.416,39.191c-0.847,8.704 -1.453,17.516 -1.517,26.446c-0.468,22.547 1.997,44.455 6.765,65.491c7.499,33.082 20.812,63.917 39.124,91.342c31.422,47.061 76.738,84.086 130.745,104.521Z" style="fill: url(#_Linear1);"></path><path d="M302.863,499.064c27.859,-21.762 59.824,-34.936 87.302,-34.936c38.324,0 59.577,17.476 67.341,36.811c4.296,10.697 4.643,22.301 1.324,32.845c2.493,-15.741 -11.109,-57.128 -58.74,-57.128c-49.667,0 -88.333,28.667 -88.333,28.667l-8.894,-6.259Z" style="fill: #fff;"></path><path d="M160.772,453.542c-48.175,0 -89.04,56.836 -38.104,120.003c-0,-0 -35.97,-29.363 -34,-95.333c1.333,-44.667 51.611,-60 95.555,-51c43.945,9 151.134,-16.698 99.123,-176.9c-0,-0 27.322,45.659 31.822,113.696c2.183,33.012 -7.357,66.677 -21.415,90.067c26.128,-19.9 33.283,-59.212 33.283,-59.212c16.341,42.479 89.549,19.419 130.962,47.896c48.22,33.157 14.5,92.5 14.5,92.5c11.334,-20.667 7.334,-93.333 -78,-93.333c-59.662,-0 -98.681,26.06 -119.767,37.629c-0.72,0.601 -44.444,-20.826 -45.17,-20.281c52.98,26.155 110.331,98.65 190.176,108.222c-0,0 -26.253,8.45 -59.109,-7.63c-23.605,-11.553 -36.753,-19.393 -56.885,-33.526c-14.878,14.064 -27.745,31.028 -36.572,49.661c-19.42,40.999 -18.457,90.472 24.759,135.81c-4.598,-15.11 -40.922,-82.457 19.027,-153.957c-5.916,45.509 23.226,43.864 23.191,91.927c-0.036,48.063 -35.19,85.269 -35.19,85.269l-7.364,6.447l-7.137,-6.698c-59.093,-55.456 -52.31,-114.859 -28.301,-165.543c9.382,-19.808 22.575,-34.332 38.19,-49.556c-10.541,-7.669 -29.718,-21.765 -41.138,-30.026c-37.245,-26.943 -67.956,-36.132 -92.436,-36.132Zm86.533,58.512c0,-0 -22.229,14.817 -32.817,20.531c-21.519,11.614 -41.881,19.402 -61.636,13.77c-26.566,-7.574 -24.131,-25.869 -24.131,-25.869l118.584,-8.432Zm44.541,-280.413c28.726,38.838 71.702,47.01 97.224,37.485c12.723,-4.748 35.464,-18.657 35.466,-58.818c0.001,-9.202 3.826,18.525 -1.024,35.207c-2.601,8.945 -7.089,16.216 -12.676,22.232c-5.141,5.535 -11.508,9.606 -18.425,12.311c-6.655,2.603 -13.959,3.79 -21.437,3.685c-12.898,-0.18 -26.507,-3.732 -39.269,-11.116c-25.913,-14.992 -39.859,-40.986 -39.859,-40.986Zm21,49c-0,0 39.947,54.098 89.614,35.596c29.55,-11.009 33.409,-43.608 34.576,-54.929c0,0 3.565,16.492 -1.483,32.943c-2.528,8.237 -6.753,15.003 -11.992,20.691c-4.786,5.198 -10.705,9.071 -17.124,11.692c-6.257,2.555 -13.126,3.775 -20.16,3.734c-12.117,-0.071 -24.919,-3.336 -36.972,-10.63c-25.274,-15.292 -36.459,-39.097 -36.459,-39.097Zm-129.73,-163.516l-39.437,-77.962c-0.504,-0.845 -0.326,-1.735 0.49,-2.446c0.83,-0.742 2.06,-1.083 3.38,-0.934c15.106,1.467 22.054,19.665 23.744,30.621c5.425,-6.316 24.406,-15.219 27.504,-5.894c0.148,0.489 0.015,1.008 -0.37,1.349c-0.386,0.356 -0.905,0.445 -1.394,0.222c-3.573,-1.616 -8.539,0.104 -11.845,3.766c-4.581,5.114 -8.529,14.437 -6.394,19.744c6.582,16.277 32.278,14.337 47.058,11.15c11.178,-2.386 24.021,-8.909 24.569,-20.428c0.371,-7.546 -8.321,-16.722 -15.289,-19.909c-5.559,-2.535 -11.652,-1.661 -14.973,0.444c-0.4,0.252 -0.86,0.267 -1.275,0.06c-0.415,-0.208 -0.681,-0.608 -0.696,-1.068c-0.579,-9.31 23.109,-11.671 37.809,2.414c-8.909,-16.678 -13.74,-42.706 1.906,-58.021c0.294,-0.287 0.901,-0.333 1.141,0c13.66,18.982 10.164,35.01 1.239,59.354c13.049,-14.751 39.054,-13.057 38.491,-3.747c-0.029,0.46 -0.281,0.86 -0.697,1.068c-0.415,0.207 -0.874,0.192 -1.274,-0.06c-3.321,-2.105 -9.414,-2.979 -14.988,-0.444c-6.953,3.187 -16.312,12.363 -15.956,19.909c0.548,11.519 14.058,18.042 25.236,20.428c14.795,3.187 41.158,1.794 47.74,-14.483c2.12,-5.308 -2.48,-11.297 -7.076,-16.411c-3.291,-3.662 -8.257,-5.382 -11.845,-3.766c-0.474,0.223 -1.008,0.134 -1.393,-0.222c-0.386,-0.341 -0.519,-0.86 -0.356,-1.349c3.083,-9.325 20.012,-5.822 27.623,5.894c-1.71,-15.556 8.504,-29.154 23.625,-30.621c1.32,-0.149 2.55,0.192 3.366,0.934c0.815,0.711 0.993,1.601 0.489,2.446l-39.589,75.795c-62.677,-20.231 -109.875,-15.278 -150.563,2.167Zm1.577,34.818c0,0 15.819,-25.832 74.857,-25.832c59.037,-0 74.849,27.721 74.849,27.721c-18.159,-11.529 -48.067,-20.577 -75.142,-21.184c-28.767,-0.645 -59.251,7.964 -74.564,19.295Zm15.139,5.649c55.121,-10.352 108.555,75.715 153,75.715c60.29,-0 58.333,-64.82 58.333,-64.82c0,-0 6.531,26.837 -9.713,49.646c-7.912,11.11 -14.945,15.728 -26.765,20.121c-6.351,2.361 -13.651,3.523 -21.855,3.972c-5.559,0.074 -11.068,-0.554 -16.477,-2.001c-7.307,-1.954 -14.463,-5.249 -21.468,-9.455c-4.924,-2.958 -9.835,-6.288 -14.588,-10.088c-23.267,-18.597 -64.818,-64.961 -100.467,-63.09Zm18.333,-5c-0,0 21.982,-7.108 77.857,20.297c6.931,3.4 34.836,16.459 56.31,15.618c42.597,-1.668 37.833,-39.687 37.833,-39.687c0,0 5.648,16.775 -4.714,32.996c-4.971,7.782 -12.886,12.096 -21.724,14.825c-3.474,1.072 -7.135,1.504 -10.895,1.885c-5.472,0.318 -10.686,0.261 -15.699,-0.373c-5.313,-0.672 -10.373,-1.944 -15.213,-3.553c-6.226,-2.07 -12.097,-4.712 -17.779,-7.698c-8.116,-4.266 -15.789,-9.082 -23.731,-13.832c-39.03,-23.345 -62.245,-20.478 -62.245,-20.478Zm215.946,16.139c40.793,23.302 145.373,113.141 126.267,272.782c-18.5,154.58 -158.135,214.203 -186.829,221.354c26.706,-11.039 50.787,-26.284 72.526,-44.425c21.455,-17.904 39.942,-38.854 55.465,-62.094c12.15,-18.192 22.233,-37.774 30.215,-58.484c5.855,-15.192 10.714,-30.912 14.054,-47.228c3.257,-15.912 5.373,-32.295 5.752,-49.123c1.666,-46.726 -8.908,-90.935 -28.532,-129.979c-20.694,-41.173 -51.183,-76.583 -88.918,-102.803Zm-232.562,494.136c0,0 -185.729,-53.756 -190.04,-261.354c-2.914,-140.362 104.484,-219.481 129.478,-232.782c-22.257,16.475 -41.508,36.211 -58.002,58.313c-10.761,14.419 -20.093,29.798 -28.09,46.055c-9.727,19.774 -17.005,40.8 -22.047,62.777c-2.93,12.772 -5.115,25.833 -6.416,39.191c-0.847,8.704 -1.453,17.516 -1.517,26.446c-0.468,22.547 1.997,44.455 6.765,65.491c7.499,33.082 20.812,63.917 39.124,91.342c52.902,79.232 130.745,104.521 130.745,104.521Z" style="fill: url(#_Linear2);"></path><path d="M109.166,438.739c5.447,-7.389 13.104,-11.364 22.998,-13.288c10.237,-1.99 22.839,-1.747 37.869,-0.651c7.682,0.561 15.979,1.394 24.934,2.201c11.106,1.125 22.621,-0.09 33.733,-3.3c4.629,-1.337 9.183,-3.03 13.623,-5.06c7.246,-3.313 14.152,-7.564 20.457,-12.813c6.076,-5.058 11.622,-10.981 16.344,-17.879c8.479,-12.386 14.363,-27.722 16.278,-46.193c1.538,-14.837 0.644,-31.577 -3.556,-50.35c7.219,23.01 9.171,43.355 7.131,61.022c-1.766,15.289 -6.519,28.548 -13.281,39.744c-5.735,9.497 -12.961,17.498 -21.139,23.947c-5.685,4.482 -11.854,8.193 -18.298,11.131c-4.908,2.239 -9.985,4.024 -15.145,5.338c-12.279,3.126 -24.986,3.69 -37.082,1.89c-8.85,-1.417 -17.054,-2.751 -24.646,-3.899c-14.53,-2.199 -26.725,-3.578 -36.843,-2.556c-9.709,0.98 -17.435,4.106 -23.377,10.716Z" style="fill: #fff;"></path><path d="M327.166,396.073c4.674,10.828 13.268,16.63 23.377,19.89c7.336,2.366 15.412,3.263 23.342,3.784c8.756,0.576 17.283,0.668 24.355,1.042c3.135,0.243 6.728,0.447 10.623,0.868c3.382,0.366 6.991,0.86 10.723,1.578c10.008,1.928 20.941,5.16 30.932,10.997c13.94,8.144 26.053,21.179 31.315,42.507c-5.892,-15.234 -15.042,-25.144 -25.446,-31.821c-6.345,-4.072 -13.138,-6.831 -19.94,-8.831c-4.831,-1.421 -9.651,-2.401 -14.302,-3.175c-5.193,-0.866 -10.171,-1.4 -14.699,-1.858c-3.675,-0.372 -7.052,-0.736 -10.021,-1.03c-7.076,-0.877 -15.663,-1.379 -24.387,-2.779c-8.359,-1.343 -16.801,-3.404 -24.223,-6.918c-10.169,-4.813 -18.392,-12.194 -21.649,-24.254Z" style="fill: #fff;"></path><path d="M109.166,113.518c-15.509,4.107 -27.595,16.667 -31.021,32.441c-3.425,-15.774 -15.511,-28.334 -31.021,-32.441c15.51,-4.108 27.596,-16.668 31.021,-32.441c3.426,15.773 15.512,28.333 31.021,32.441Zm395.591,244.517c-11.461,3.035 -20.393,12.316 -22.924,23.973c-2.532,-11.657 -11.463,-20.938 -22.924,-23.973c11.461,-3.036 20.392,-12.317 22.924,-23.974c2.531,11.657 11.463,20.938 22.924,23.974Zm-395.591,-23.197c-5.73,1.518 -10.196,6.159 -11.462,11.987c-1.266,-5.828 -5.731,-10.469 -11.462,-11.987c5.731,-1.518 10.196,-6.158 11.462,-11.987c1.266,5.829 5.732,10.469 11.462,11.987Zm0,-60c-5.73,1.518 -10.196,6.159 -11.462,11.987c-1.266,-5.828 -5.731,-10.469 -11.462,-11.987c5.731,-1.518 10.196,-6.158 11.462,-11.987c1.266,5.829 5.732,10.469 11.462,11.987Zm22.924,23.973c-5.731,1.518 -10.196,6.159 -11.462,11.987c-1.266,-5.828 -5.731,-10.469 -11.462,-11.987c5.731,-1.517 10.196,-6.158 11.462,-11.986c1.266,5.828 5.731,10.469 11.462,11.986Zm272.409,418.712c-11.461,3.036 -20.392,12.317 -22.923,23.974c-2.532,-11.657 -11.463,-20.938 -22.924,-23.974c11.461,-3.035 20.392,-12.317 22.924,-23.973c2.531,11.656 11.462,20.938 22.923,23.973Zm22.924,-604.005c-11.461,3.035 -20.392,12.316 -22.924,23.973c-2.531,-11.657 -11.462,-20.938 -22.923,-23.973c11.461,-3.036 20.392,-12.317 22.923,-23.974c2.532,11.657 11.463,20.938 22.924,23.974Z" style="fill: #fff;"></path><linearGradient id="_Linear1" x1="0" y1="0" x2="1" y2="0" gradientUnits="userSpaceOnUse" gradientTransform="matrix(675.316,0,0,790.077,-65.2922,346.458)" style=""><stop offset="0" style="stop-color: #714200; stop-opacity: 1;"></stop><stop offset="0.09" style="stop-color: #ffcd92; stop-opacity: 1;"></stop><stop offset="0.25" style="stop-color: #ffa526; stop-opacity: 1;"></stop><stop offset="0.5" style="stop-color: #fff; stop-opacity: 1;"></stop><stop offset="0.75" style="stop-color: #ffa01c; stop-opacity: 1;"></stop><stop offset="0.88" style="stop-color: #ffbf99; stop-opacity: 1;"></stop><stop offset="1" style="stop-color: #714200; stop-opacity: 1;"></stop></linearGradient><linearGradient id="_Linear2" x1="0" y1="0" x2="1" y2="0" gradientUnits="userSpaceOnUse" gradientTransform="matrix(675.316,0,0,790.077,-65.2922,346.458)" style=""><stop offset="0" style="stop-color: #714200; stop-opacity: 1;"></stop><stop offset="0.13" style="stop-color: #ee9921; stop-opacity: 1;"></stop><stop offset="0.25" style="stop-color: #9c5f09; stop-opacity: 1;"></stop><stop offset="0.38" style="stop-color: #ee9921; stop-opacity: 1;"></stop><stop offset="0.5" style="stop-color: #955a07; stop-opacity: 1;"></stop><stop offset="0.63" style="stop-color: #ee9921; stop-opacity: 1;"></stop><stop offset="0.75" style="stop-color: #955a07; stop-opacity: 1;"></stop><stop offset="0.88" style="stop-color: #ee9921; stop-opacity: 1;"></stop><stop offset="1" style="stop-color: #714200; stop-opacity: 1;"></stop></linearGradient></svg> <svg y="563.377825" viewBox="0.800000011920929 10.319999694824219 392.87164306640625 37.41405487060547" x="119.220388" height="37.41405487060547" width="392.87164306640625" style="overflow: visible;"><g fill="#FFE58A" fill-opacity="1" style=""><path d="M11.13 11.21L13.74 11.21L13.74 39.20L11.13 39.20L11.13 11.21ZM0.80 11.05L24.06 11.05L24.06 12.25L0.80 12.25L0.80 11.05ZM21.29 12.13L24.06 12.13L24.06 15.38L23.66 15.34L23.66 14.66Q23.66 13.66 22.96 12.97Q22.25 12.29 21.29 12.25L21.29 12.25L21.29 12.13ZM24.06 10.32L24.06 10.32L24.06 11.49L19.16 11.05Q20.04 11.05 21.03 10.93Q22.01 10.80 22.85 10.64Q23.70 10.48 24.06 10.32ZM11.13 36.27L11.25 36.27L11.25 39.20L8.03 39.20L8.03 38.80Q8.03 38.80 8.29 38.80Q8.56 38.80 8.56 38.80L8.56 38.80Q9.60 38.80 10.34 38.06Q11.09 37.31 11.13 36.27L11.13 36.27ZM13.62 39.20L13.62 36.27L13.74 36.27Q13.78 37.31 14.52 38.06Q15.26 38.80 16.31 38.80L16.31 38.80Q16.31 38.80 16.57 38.80Q16.83 38.80 16.83 38.80L16.83 38.80L16.83 39.20L13.62 39.20ZM0.80 12.13L3.57 12.13L3.57 12.25Q2.57 12.29 1.89 12.97Q1.20 13.66 1.20 14.66L1.20 14.66L1.20 15.34L0.80 15.38L0.80 12.13ZM0.80 11.49L0.80 10.32Q1.20 10.48 2.03 10.64Q2.85 10.80 3.86 10.93Q4.86 11.05 5.70 11.05L5.70 11.05L0.80 11.49ZM47.24 15.10L49.81 15.10L49.81 39.20L47.24 39.20L47.24 15.10ZM29.84 15.10L32.41 15.10L32.41 39.20L29.84 39.20L29.84 15.10ZM31.97 26.71L47.64 26.71L47.64 27.92L31.97 27.92L31.97 26.71ZM29.84 36.63L29.96 36.63L29.96 39.20L27.03 39.20L27.03 38.80Q27.03 38.80 27.27 38.80Q27.51 38.80 27.51 38.80L27.51 38.80Q28.48 38.80 29.14 38.16Q29.80 37.52 29.84 36.63L29.84 36.63ZM32.29 39.20L32.29 36.63L32.41 36.63Q32.41 37.52 33.10 38.16Q33.78 38.80 34.74 38.80L34.74 38.80Q34.74 38.80 34.99 38.80Q35.23 38.80 35.23 38.80L35.23 38.80L35.23 39.20L32.29 39.20ZM32.41 17.67L32.29 17.67L32.29 15.10L35.23 15.10L35.23 15.50Q35.23 15.50 34.99 15.50Q34.74 15.50 34.74 15.50L34.74 15.50Q33.78 15.50 33.10 16.13Q32.41 16.75 32.41 17.67L32.41 17.67ZM29.96 15.10L29.96 17.67L29.84 17.67Q29.80 16.75 29.14 16.13Q28.48 15.50 27.51 15.50L27.51 15.50Q27.51 15.50 27.27 15.50Q27.03 15.50 27.03 15.50L27.03 15.50L27.03 15.10L29.96 15.10ZM47.24 36.63L47.36 36.63L47.36 39.20L44.42 39.20L44.42 38.80Q44.42 38.80 44.67 38.80Q44.91 38.80 44.91 38.80L44.91 38.80Q45.87 38.80 46.53 38.16Q47.20 37.52 47.24 36.63L47.24 36.63ZM49.69 39.20L49.69 36.63L49.81 36.63Q49.85 37.52 50.51 38.16Q51.17 38.80 52.14 38.80L52.14 38.80Q52.14 38.80 52.38 38.80Q52.62 38.80 52.62 38.80L52.62 38.80L52.62 39.20L49.69 39.20ZM49.81 17.67L49.69 17.67L49.69 15.10L52.62 15.10L52.62 15.50Q52.62 15.50 52.38 15.50Q52.14 15.50 52.14 15.50L52.14 15.50Q51.17 15.50 50.51 16.13Q49.85 16.75 49.81 17.67L49.81 17.67ZM47.36 15.10L47.36 17.67L47.24 17.67Q47.20 16.75 46.53 16.13Q45.87 15.50 44.91 15.50L44.91 15.50Q44.91 15.50 44.67 15.50Q44.42 15.50 44.42 15.50L44.42 15.50L44.42 15.10L47.36 15.10ZM59.89 15.10L62.46 15.10L62.46 39.20L59.89 39.20L59.89 15.10ZM62.38 37.96L73.26 37.96L73.18 39.20L62.38 39.20L62.38 37.96ZM62.38 26.55L71.38 26.55L71.38 27.76L62.38 27.76L62.38 26.55ZM62.38 15.10L73.22 15.10L73.22 16.35L62.38 16.35L62.38 15.10ZM75.11 33.46L75.51 33.46L73.30 39.20L67.20 39.20L68.56 37.96Q70.57 37.96 71.80 37.37Q73.02 36.79 73.79 35.77Q74.55 34.74 75.11 33.46L75.11 33.46ZM69.29 27.67L71.38 27.67L71.38 29.96L70.93 29.96L70.93 29.44Q70.93 28.76 70.53 28.26Q70.13 27.76 69.29 27.76L69.29 27.76L69.29 27.67ZM70.93 24.34L71.38 24.34L71.38 26.63L69.29 26.63L69.29 26.55Q70.13 26.55 70.53 26.05Q70.93 25.55 70.93 24.86L70.93 24.86L70.93 24.34ZM70.77 16.23L73.22 16.23L73.22 19.00L72.78 19.00L72.78 18.40Q72.78 17.55 72.24 16.95Q71.70 16.35 70.77 16.35L70.77 16.35L70.77 16.23ZM73.22 14.46L73.22 14.46L73.22 15.50L68.64 15.10Q69.89 15.10 71.30 14.88Q72.70 14.66 73.22 14.46ZM59.89 36.63L59.97 36.63L60.49 39.20L57.00 39.20L57.00 38.80Q57.00 38.80 57.28 38.80Q57.56 38.80 57.56 38.80L57.56 38.80Q58.56 38.80 59.21 38.16Q59.85 37.52 59.89 36.63L59.89 36.63ZM60.49 15.10L59.97 17.63L59.89 17.63Q59.85 16.71 59.21 16.11Q58.56 15.50 57.56 15.50L57.56 15.50Q57.56 15.50 57.28 15.50Q57.00 15.50 57.00 15.50L57.00 15.50L57.00 15.10L60.49 15.10ZM114.96 27.47L115.28 27.47L114.80 33.78Q113.75 35.51 112.17 36.85Q110.58 38.20 108.43 38.98Q106.28 39.76 103.51 39.76L103.51 39.76Q99.33 39.72 96.08 37.92Q92.82 36.11 91.00 32.84Q89.17 29.56 89.17 25.10L89.17 25.10Q89.17 20.73 90.98 17.45Q92.78 14.18 96.06 12.35Q99.33 10.52 103.75 10.52L103.75 10.52Q106.72 10.52 109.11 11.31Q111.50 12.09 113.27 13.25L113.27 13.25L114.07 18.92L113.71 18.92Q112.83 15.38 110.10 13.56Q107.37 11.73 103.75 11.73L103.75 11.73Q100.22 11.73 97.62 13.40Q95.03 15.06 93.61 18.05Q92.18 21.05 92.18 25.06L92.18 25.06Q92.18 29.08 93.61 32.09Q95.03 35.11 97.58 36.79Q100.14 38.48 103.51 38.56L103.51 38.56Q106.36 38.56 108.79 37.50Q111.22 36.43 112.87 34.00Q114.51 31.57 114.96 27.47L114.96 27.47ZM139.70 15.10L142.27 15.10L142.27 39.20L139.70 39.20L139.70 15.10ZM122.31 15.10L124.88 15.10L124.88 39.20L122.31 39.20L122.31 15.10ZM124.44 26.71L140.10 26.71L140.10 27.92L124.44 27.92L124.44 26.71ZM122.31 36.63L122.43 36.63L122.43 39.20L119.50 39.20L119.50 38.80Q119.50 38.80 119.74 38.80Q119.98 38.80 119.98 38.80L119.98 38.80Q120.94 38.80 121.60 38.16Q122.27 37.52 122.31 36.63L122.31 36.63ZM124.76 39.20L124.76 36.63L124.88 36.63Q124.88 37.52 125.56 38.16Q126.24 38.80 127.21 38.80L127.21 38.80Q127.21 38.80 127.45 38.80Q127.69 38.80 127.69 38.80L127.69 38.80L127.69 39.20L124.76 39.20ZM124.88 17.67L124.76 17.67L124.76 15.10L127.69 15.10L127.69 15.50Q127.69 15.50 127.45 15.50Q127.21 15.50 127.21 15.50L127.21 15.50Q126.24 15.50 125.56 16.13Q124.88 16.75 124.88 17.67L124.88 17.67ZM122.43 15.10L122.43 17.67L122.31 17.67Q122.27 16.75 121.60 16.13Q120.94 15.50 119.98 15.50L119.98 15.50Q119.98 15.50 119.74 15.50Q119.50 15.50 119.50 15.50L119.50 15.50L119.50 15.10L122.43 15.10ZM139.70 36.63L139.82 36.63L139.82 39.20L136.89 39.20L136.89 38.80Q136.89 38.80 137.13 38.80Q137.37 38.80 137.37 38.80L137.37 38.80Q138.33 38.80 139.00 38.16Q139.66 37.52 139.70 36.63L139.70 36.63ZM142.15 39.20L142.15 36.63L142.27 36.63Q142.31 37.52 142.97 38.16Q143.64 38.80 144.60 38.80L144.60 38.80Q144.60 38.80 144.84 38.80Q145.08 38.80 145.08 38.80L145.08 38.80L145.08 39.20L142.15 39.20ZM142.27 17.67L142.15 17.67L142.15 15.10L145.08 15.10L145.08 15.50Q145.08 15.50 144.84 15.50Q144.60 15.50 144.60 15.50L144.60 15.50Q143.64 15.50 142.97 16.13Q142.31 16.75 142.27 17.67L142.27 17.67ZM139.82 15.10L139.82 17.67L139.70 17.67Q139.66 16.75 139.00 16.13Q138.33 15.50 137.37 15.50L137.37 15.50Q137.37 15.50 137.13 15.50Q136.89 15.50 136.89 15.50L136.89 15.50L136.89 15.10L139.82 15.10ZM152.75 15.10L155.28 15.10L155.28 39.20L152.75 39.20L152.75 15.10ZM152.75 36.63L152.87 36.63L152.87 39.20L149.46 39.20L149.46 38.80Q149.46 38.80 149.74 38.80Q150.02 38.80 150.02 38.80L150.02 38.80Q151.15 38.80 151.93 38.16Q152.71 37.52 152.75 36.63L152.75 36.63ZM155.16 39.20L155.16 36.63L155.28 36.63Q155.32 37.52 156.11 38.16Q156.89 38.80 158.02 38.80L158.02 38.80Q158.02 38.80 158.28 38.80Q158.54 38.80 158.54 38.80L158.54 38.80L158.58 39.20L155.16 39.20ZM155.28 17.67L155.16 17.67L155.16 15.10L158.58 15.10L158.54 15.50Q158.54 15.50 158.28 15.50Q158.02 15.50 158.02 15.50L158.02 15.50Q156.89 15.50 156.11 16.13Q155.32 16.75 155.28 17.67L155.28 17.67ZM152.87 15.10L152.87 17.67L152.75 17.67Q152.71 16.75 151.93 16.13Q151.15 15.50 150.02 15.50L150.02 15.50Q149.98 15.50 149.72 15.50Q149.46 15.50 149.46 15.50L149.46 15.50L149.46 15.10L152.87 15.10ZM175.45 14.54L175.45 14.54Q178.22 14.54 180.61 15.44Q183.00 16.35 184.83 18.03Q186.65 19.72 187.68 22.03Q188.70 24.34 188.70 27.15L188.70 27.15Q188.70 29.96 187.68 32.27Q186.65 34.58 184.83 36.27Q183.00 37.96 180.61 38.86Q178.22 39.76 175.45 39.76L175.45 39.76Q172.68 39.76 170.27 38.86Q167.86 37.96 166.03 36.27Q164.20 34.58 163.18 32.27Q162.15 29.96 162.15 27.15L162.15 27.15Q162.15 24.34 163.18 22.03Q164.20 19.72 166.03 18.03Q167.86 16.35 170.27 15.44Q172.68 14.54 175.45 14.54ZM175.45 38.56L175.45 38.56Q178.34 38.56 180.67 37.11Q183.00 35.67 184.38 33.10Q185.77 30.53 185.77 27.15L185.77 27.15Q185.77 23.74 184.38 21.19Q183.00 18.64 180.67 17.19Q178.34 15.75 175.45 15.75L175.45 15.75Q172.56 15.75 170.23 17.19Q167.90 18.64 166.51 21.19Q165.12 23.74 165.12 27.15L165.12 27.15Q165.12 30.53 166.51 33.10Q167.90 35.67 170.23 37.11Q172.56 38.56 175.45 38.56ZM175.37 39.72L175.37 39.72L175.77 38.84Q176.37 38.84 177.42 39.08Q178.46 39.32 179.85 39.76Q181.23 40.21 182.92 40.83Q184.61 41.45 186.53 42.19Q188.46 42.94 190.59 43.78L190.59 43.78Q192.60 44.58 194.93 44.99Q197.26 45.39 199.63 45.29Q202.00 45.19 204.17 44.42Q206.34 43.66 207.98 42.17L207.98 42.17L208.10 42.34Q207.86 42.98 206.92 43.96Q205.97 44.95 204.41 45.87Q202.84 46.79 200.73 47.34Q198.62 47.88 196.01 47.68Q193.40 47.48 190.35 46.19L190.35 46.19Q188.74 45.51 186.87 44.54Q185.01 43.58 183.04 42.60Q181.07 41.61 179.12 40.83Q177.17 40.05 175.37 39.72ZM195.09 15.10L197.66 15.10L197.66 30.29Q197.66 34.18 199.65 36.43Q201.64 38.68 205.09 38.68L205.09 38.68Q208.91 38.68 211.10 36.55Q213.28 34.42 213.28 30.73L213.28 30.73L213.28 15.10L215.13 15.10L215.13 30.73Q215.13 34.90 212.46 37.33Q209.79 39.76 205.13 39.76L205.13 39.76Q200.51 39.76 197.80 37.35Q195.09 34.94 195.09 30.77L195.09 30.77L195.09 15.10ZM192.56 15.10L195.17 15.10L195.17 17.23L195.09 17.23Q195.05 16.51 194.51 16.01Q193.96 15.50 193.16 15.50L193.16 15.50Q193.16 15.50 192.86 15.50Q192.56 15.50 192.56 15.50L192.56 15.50L192.56 15.10ZM197.58 15.10L200.19 15.10L200.19 15.50Q200.19 15.50 199.89 15.50Q199.59 15.50 199.59 15.50L199.59 15.50Q198.82 15.50 198.24 16.01Q197.66 16.51 197.66 17.23L197.66 17.23L197.58 17.23L197.58 15.10ZM210.75 15.10L213.36 15.10L213.36 17.23L213.28 17.23Q213.28 16.51 212.72 16.01Q212.16 15.50 211.36 15.50L211.36 15.50Q211.36 15.50 211.06 15.50Q210.75 15.50 210.75 15.50L210.75 15.50L210.75 15.10ZM215.05 15.10L217.66 15.10L217.66 15.50Q217.66 15.50 217.36 15.50Q217.06 15.50 217.06 15.50L217.06 15.50Q216.30 15.50 215.73 16.01Q215.17 16.51 215.13 17.23L215.13 17.23L215.05 17.23L215.05 15.10ZM224.17 15.10L226.74 15.10L226.74 39.20L224.17 39.20L224.17 15.10ZM226.66 37.96L237.54 37.96L237.46 39.20L226.66 39.20L226.66 37.96ZM226.66 26.55L235.66 26.55L235.66 27.76L226.66 27.76L226.66 26.55ZM226.66 15.10L237.50 15.10L237.50 16.35L226.66 16.35L226.66 15.10ZM239.39 33.46L239.79 33.46L237.59 39.20L231.48 39.20L232.85 37.96Q234.85 37.96 236.08 37.37Q237.30 36.79 238.07 35.77Q238.83 34.74 239.39 33.46L239.39 33.46ZM233.57 27.67L235.66 27.67L235.66 29.96L235.22 29.96L235.22 29.44Q235.22 28.76 234.81 28.26Q234.41 27.76 233.57 27.76L233.57 27.76L233.57 27.67ZM235.22 24.34L235.66 24.34L235.66 26.63L233.57 26.63L233.57 26.55Q234.41 26.55 234.81 26.05Q235.22 25.55 235.22 24.86L235.22 24.86L235.22 24.34ZM235.05 16.23L237.50 16.23L237.50 19.00L237.06 19.00L237.06 18.40Q237.06 17.55 236.52 16.95Q235.98 16.35 235.05 16.35L235.05 16.35L235.05 16.23ZM237.50 14.46L237.50 14.46L237.50 15.50L232.93 15.10Q234.17 15.10 235.58 14.88Q236.98 14.66 237.50 14.46ZM224.17 36.63L224.25 36.63L224.77 39.20L221.28 39.20L221.28 38.80Q221.28 38.80 221.56 38.80Q221.84 38.80 221.84 38.80L221.84 38.80Q222.84 38.80 223.49 38.16Q224.13 37.52 224.17 36.63L224.17 36.63ZM224.77 15.10L224.25 17.63L224.17 17.63Q224.13 16.71 223.49 16.11Q222.84 15.50 221.84 15.50L221.84 15.50Q221.84 15.50 221.56 15.50Q221.28 15.50 221.28 15.50L221.28 15.50L221.28 15.10L224.77 15.10ZM256.54 11.09L259.15 11.09L259.15 39.20L256.54 39.20L256.54 11.09ZM259.03 37.96L270.00 37.96L270.00 39.20L259.03 39.20L259.03 37.96ZM259.03 24.74L268.27 24.74L268.27 25.95L259.03 25.95L259.03 24.74ZM259.03 11.09L270.00 11.09L270.00 12.33L259.03 12.33L259.03 11.09ZM272.05 32.70L272.45 32.70L270.12 39.20L263.45 39.20L264.90 37.96Q267.03 37.96 268.37 37.29Q269.72 36.63 270.56 35.43Q271.41 34.22 272.05 32.70L272.05 32.70ZM265.94 25.87L268.27 25.87L268.27 28.52L267.87 28.52L267.87 27.92Q267.87 27.11 267.31 26.53Q266.75 25.95 265.94 25.95L265.94 25.95L265.94 25.87ZM267.87 22.17L268.27 22.17L268.27 24.82L265.94 24.82L265.94 24.74Q266.75 24.70 267.31 24.12Q267.87 23.54 267.87 22.73L267.87 22.73L267.87 22.17ZM267.23 12.21L270.00 12.21L270.00 15.42L269.60 15.42L269.60 14.70Q269.60 13.74 268.92 13.03Q268.23 12.33 267.23 12.29L267.23 12.29L267.23 12.21ZM270.00 10.36L270.00 10.36L270.00 11.53L265.10 11.09Q265.98 11.09 266.97 10.97Q267.95 10.84 268.79 10.68Q269.64 10.52 270.00 10.36ZM256.54 36.27L256.66 36.27L256.66 39.20L253.45 39.20L253.45 38.80Q253.45 38.80 253.71 38.80Q253.97 38.80 253.97 38.80L253.97 38.80Q255.02 38.80 255.76 38.06Q256.50 37.31 256.54 36.27L256.54 36.27ZM256.66 11.09L256.66 14.02L256.54 14.02Q256.54 12.97 255.78 12.23Q255.02 11.49 253.97 11.49L253.97 11.49Q253.97 11.49 253.73 11.49Q253.49 11.49 253.49 11.49L253.49 11.49L253.45 11.09L256.66 11.09ZM288.03 36.19L287.35 39.76L276.31 15.34L279.48 15.34L288.03 36.19ZM287.71 39.76L287.35 39.76L287.07 36.99L296.27 15.22L298.80 15.22L289.28 35.63Q289.28 35.63 289.06 36.11Q288.84 36.59 288.54 37.29Q288.24 38.00 287.99 38.68Q287.75 39.36 287.71 39.76L287.71 39.76ZM297.47 18.03L295.10 18.03Q295.55 16.83 294.98 16.17Q294.42 15.50 293.70 15.50L293.70 15.50L293.42 15.50L293.42 15.10L301.05 15.10L301.05 15.50Q301.05 15.50 300.89 15.50Q300.73 15.50 300.73 15.50L300.73 15.50Q299.88 15.50 299.00 16.09Q298.12 16.67 297.47 18.03L297.47 18.03ZM280.56 18.03L280.56 18.03L277.51 18.03Q276.91 16.67 276.02 16.09Q275.14 15.50 274.34 15.50L274.34 15.50Q274.34 15.50 274.18 15.50Q274.02 15.50 274.02 15.50L274.02 15.50L274.02 15.10L282.25 15.10L282.25 15.50L281.93 15.50Q281.25 15.50 280.70 16.17Q280.16 16.83 280.56 18.03ZM305.95 15.10L308.52 15.10L308.52 39.20L305.95 39.20L305.95 15.10ZM308.44 37.96L319.32 37.96L319.24 39.20L308.44 39.20L308.44 37.96ZM308.44 26.55L317.44 26.55L317.44 27.76L308.44 27.76L308.44 26.55ZM308.44 15.10L319.28 15.10L319.28 16.35L308.44 16.35L308.44 15.10ZM321.17 33.46L321.57 33.46L319.36 39.20L313.26 39.20L314.62 37.96Q316.63 37.96 317.86 37.37Q319.08 36.79 319.85 35.77Q320.61 34.74 321.17 33.46L321.17 33.46ZM315.35 27.67L317.44 27.67L317.44 29.96L316.99 29.96L316.99 29.44Q316.99 28.76 316.59 28.26Q316.19 27.76 315.35 27.76L315.35 27.76L315.35 27.67ZM316.99 24.34L317.44 24.34L317.44 26.63L315.35 26.63L315.35 26.55Q316.19 26.55 316.59 26.05Q316.99 25.55 316.99 24.86L316.99 24.86L316.99 24.34ZM316.83 16.23L319.28 16.23L319.28 19.00L318.84 19.00L318.84 18.40Q318.84 17.55 318.30 16.95Q317.76 16.35 316.83 16.35L316.83 16.35L316.83 16.23ZM319.28 14.46L319.28 14.46L319.28 15.50L314.70 15.10Q315.95 15.10 317.36 14.88Q318.76 14.66 319.28 14.46ZM305.95 36.63L306.03 36.63L306.55 39.20L303.06 39.20L303.06 38.80Q303.06 38.80 303.34 38.80Q303.62 38.80 303.62 38.80L303.62 38.80Q304.62 38.80 305.27 38.16Q305.91 37.52 305.95 36.63L305.95 36.63ZM306.55 15.10L306.03 17.63L305.95 17.63Q305.91 16.71 305.27 16.11Q304.62 15.50 303.62 15.50L303.62 15.50Q303.62 15.50 303.34 15.50Q303.06 15.50 303.06 15.50L303.06 15.50L303.06 15.10L306.55 15.10ZM327.52 18.68L327.12 14.50L349.37 35.47L349.77 39.76L327.52 18.68ZM327.08 36.71L327.20 36.71L327.20 39.20L324.18 39.20L324.18 38.80Q324.18 38.80 324.53 38.80Q324.87 38.80 324.87 38.80L324.87 38.80Q325.79 38.80 326.43 38.20Q327.08 37.60 327.08 36.71L327.08 36.71ZM328.76 36.71L328.88 36.71Q328.88 37.60 329.55 38.20Q330.21 38.80 331.09 38.80L331.09 38.80Q331.09 38.80 331.43 38.80Q331.78 38.80 331.78 38.80L331.78 38.80L331.78 39.20L328.76 39.20L328.76 36.71ZM326.71 14.50L327.12 14.50L328.84 16.75L328.88 39.20L327.08 39.20L327.08 19.52Q327.08 17.47 326.90 15.99Q326.71 14.50 326.71 14.50L326.71 14.50ZM348.00 15.10L349.77 15.10L349.77 34.62Q349.77 35.91 349.85 37.09Q349.93 38.28 350.03 39.02Q350.13 39.76 350.13 39.76L350.13 39.76L349.77 39.76L348.00 37.64L348.00 15.10ZM349.77 17.59L349.65 17.59L349.65 15.10L352.66 15.10L352.66 15.50Q352.66 15.50 352.32 15.50Q351.98 15.50 351.98 15.50L351.98 15.50Q351.10 15.50 350.43 16.11Q349.77 16.71 349.77 17.59L349.77 17.59ZM348.08 17.59L348.00 17.59Q347.96 16.71 347.32 16.11Q346.68 15.50 345.75 15.50L345.75 15.50Q345.75 15.50 345.41 15.50Q345.07 15.50 345.07 15.50L345.07 15.50L345.07 15.10L348.08 15.10L348.08 17.59ZM364.39 15.22L367.00 15.22L367.00 39.20L364.39 39.20L364.39 15.22ZM354.67 15.06L376.72 15.06L376.72 16.27L354.67 16.27L354.67 15.06ZM374.27 16.19L376.72 16.19L376.72 18.96L376.28 18.96L376.28 18.32Q376.28 17.47 375.74 16.89Q375.20 16.31 374.27 16.27L374.27 16.27L374.27 16.19ZM376.72 14.42L376.72 14.42L376.72 15.46L372.22 15.06Q373.03 15.06 373.93 14.96Q374.83 14.86 375.60 14.70Q376.36 14.54 376.72 14.42ZM364.39 36.63L364.47 36.63L364.47 39.20L361.54 39.20L361.54 38.80Q361.58 38.80 361.80 38.80Q362.02 38.80 362.02 38.80L362.02 38.80Q362.99 38.80 363.67 38.16Q364.35 37.52 364.39 36.63L364.39 36.63ZM366.88 39.20L366.88 36.63L367.00 36.63Q367.04 37.52 367.72 38.16Q368.41 38.80 369.37 38.80L369.37 38.80Q369.37 38.80 369.59 38.80Q369.81 38.80 369.81 38.80L369.81 38.80L369.81 39.20L366.88 39.20ZM354.67 16.19L357.12 16.19L357.12 16.27Q356.20 16.31 355.65 16.89Q355.11 17.47 355.11 18.32L355.11 18.32L355.11 18.96L354.67 18.96L354.67 16.19ZM354.67 15.46L354.67 14.42Q355.03 14.54 355.78 14.70Q356.52 14.86 357.44 14.96Q358.37 15.06 359.17 15.06L359.17 15.06L354.67 15.46ZM386.68 14.54L386.68 14.54Q387.81 14.54 388.65 14.62Q389.49 14.70 390.12 14.80Q390.74 14.90 391.20 15.04Q391.66 15.18 392.03 15.30L392.03 15.30L392.07 19.28L391.58 19.28Q391.58 17.63 390.46 16.69Q389.33 15.75 386.96 15.75L386.96 15.75Q384.96 15.75 383.53 16.85Q382.10 17.95 382.14 19.56L382.14 19.56Q382.14 20.08 382.29 20.63Q382.43 21.17 382.77 21.69Q383.11 22.21 383.71 22.73L383.71 22.73L391.82 29.00Q392.75 29.76 393.19 30.95Q393.63 32.13 393.67 33.30L393.67 33.30Q393.71 35.07 392.75 36.55Q391.78 38.04 390.16 38.90Q388.53 39.76 386.56 39.76L386.56 39.76Q385.40 39.76 384.05 39.56Q382.71 39.36 381.54 38.94Q380.38 38.52 379.61 37.88L379.61 37.88Q379.49 37.31 379.49 36.45Q379.49 35.59 379.63 34.62Q379.77 33.66 380.02 32.90L380.02 32.90L380.50 32.90Q380.34 34.70 381.02 35.99Q381.70 37.27 383.03 37.94Q384.35 38.60 386.12 38.56L386.12 38.56Q388.61 38.48 390.04 37.29Q391.46 36.11 391.46 34.14L391.46 34.14Q391.46 33.18 391.12 32.39Q390.78 31.61 390.02 30.93L390.02 30.93L381.98 24.74Q380.86 23.78 380.46 22.61Q380.06 21.45 380.06 20.40L380.06 20.40Q380.06 18.76 380.94 17.43Q381.82 16.11 383.33 15.32Q384.84 14.54 386.68 14.54ZM389.17 14.90L391.99 14.90L392.03 15.62L389.17 15.62L389.17 14.90Z" transform="translate(0, 0)"></path></g></svg></svg>