<svg width="587" height="79" viewBox="0 0 587 79" fill="none" xmlns="http://www.w3.org/2000/svg">
<path d="M252.463 6.68159C252.726 6.67963 252.989 6.67768 253.261 6.67566C254.138 6.66989 255.015 6.66723 255.892 6.66506C256.504 6.66279 257.116 6.66053 257.728 6.65826C259.016 6.65411 260.305 6.65182 261.594 6.65045C263.23 6.64831 264.865 6.63891 266.501 6.62763C267.769 6.62022 269.037 6.61825 270.305 6.61765C270.907 6.61647 271.509 6.61336 272.11 6.60813C280.574 6.53989 288.84 8.3271 295.149 14.3713C301.018 20.5835 302.196 28.017 302.041 36.2753C301.836 41.5806 300.603 46.7971 298.373 51.6171C298.208 51.9778 298.044 52.3386 297.874 52.7103C294.213 60.0422 287.943 64.9051 280.265 67.5077C276.586 68.7121 273.168 69.3919 269.288 69.3744C268.78 69.3745 268.78 69.3745 268.263 69.3746C267.153 69.3743 266.043 69.3712 264.933 69.3682C264.16 69.3674 263.387 69.3669 262.615 69.3665C260.587 69.365 258.559 69.3611 256.531 69.3567C254.459 69.3527 252.387 69.3509 250.316 69.3489C246.255 69.3447 242.195 69.338 238.134 69.3297C238.111 67.6007 238.094 65.9841 238.446 64.2853C238.515 63.9455 238.583 63.6056 238.654 63.2555C238.73 62.895 238.806 62.5346 238.885 62.1632C238.964 61.7769 239.043 61.3906 239.124 60.9926C239.293 60.1617 239.465 59.331 239.637 58.5006C240.097 56.2797 240.547 54.0567 240.998 51.8339C241.09 51.383 241.181 50.9322 241.276 50.4677C242.129 46.2507 242.921 42.0235 243.696 37.7914C244.837 31.566 246.044 25.3563 247.308 19.1544C247.431 18.5472 247.554 17.9399 247.677 17.3326C247.736 17.0427 247.795 16.7528 247.856 16.4541C248.341 14.0387 248.771 11.6149 249.171 9.18409C249.61 6.5929 249.866 6.69619 252.463 6.68159Z" fill="#010101"/>
<path d="M188.239 6.68778C188.497 6.68645 188.755 6.68513 189.021 6.68377C189.881 6.68001 190.742 6.67926 191.602 6.67884C192.204 6.67757 192.805 6.67625 193.406 6.67487C194.673 6.6725 195.94 6.67178 197.207 6.67202C198.812 6.67206 200.416 6.66674 202.021 6.6599C203.267 6.65547 204.514 6.65473 205.761 6.65494C206.351 6.65448 206.941 6.65278 207.531 6.64969C215.15 6.61361 223.854 6.91511 229.866 12.2556C233.272 15.7281 234.324 19.3538 234.369 24.1132C234.374 24.4419 234.378 24.7706 234.382 25.1092C234.326 29.0763 232.942 32.9213 230.312 35.9247C227.993 38.1586 225.345 39.3888 222.386 40.5958C222.682 40.8257 222.978 41.0555 223.282 41.2923C224.187 42.0329 224.976 42.7571 225.757 43.6217C226.087 43.9771 226.087 43.9771 226.423 44.3398C228.315 47.0351 228.916 49.5308 228.897 52.7856C228.902 53.1478 228.907 53.5101 228.912 53.8833C228.925 55.0304 228.929 56.1772 228.931 57.3244C228.938 58.4715 228.947 59.6185 228.96 60.7655C228.967 61.4757 228.971 62.1859 228.97 62.8961C228.973 63.2232 228.976 63.5504 228.978 63.8875C228.979 64.1696 228.979 64.4517 228.98 64.7424C229.127 66.2928 229.528 67.8094 229.866 69.3297C223.89 69.3297 217.913 69.3297 211.755 69.3297C211.09 67.9982 211.291 66.4839 211.279 65.0184C211.268 64.2962 211.256 63.5741 211.245 62.8519C211.229 61.7127 211.214 60.5735 211.204 59.4341C211.193 58.3351 211.175 57.2364 211.156 56.1374C211.154 55.7991 211.153 55.4607 211.152 55.1121C211.112 53.135 210.881 51.755 209.787 50.0425C207.941 48.3775 206.918 48.0248 204.456 47.9499C203.944 47.9334 203.431 47.917 202.903 47.9C202.36 47.8843 201.816 47.8687 201.273 47.8531C200.726 47.8361 200.18 47.8189 199.633 47.8016C198.293 47.7597 196.953 47.7195 195.613 47.6809C195.573 48.0496 195.532 48.4183 195.49 48.7982C195.04 52.7187 194.382 56.5737 193.61 60.4431C193.42 61.4001 193.232 62.3577 193.046 63.3155C192.925 63.9288 192.804 64.542 192.683 65.1552C192.628 65.4393 192.572 65.7234 192.514 66.0161C192.288 67.1497 192.042 68.2316 191.676 69.3297C185.829 69.3297 179.983 69.3297 173.959 69.3297C173.959 65.7876 173.959 65.7876 174.27 64.2852C174.339 63.9454 174.408 63.6056 174.479 63.2555C174.555 62.895 174.631 62.5345 174.709 62.1631C174.788 61.7768 174.867 61.3906 174.948 60.9926C175.118 60.1616 175.289 59.331 175.461 58.5005C175.922 56.2796 176.372 54.0567 176.823 51.8338C176.914 51.383 177.006 50.9322 177.1 50.4677C177.954 46.2507 178.745 42.0234 179.52 37.7913C180.662 31.5659 181.869 25.3562 183.132 19.1544C183.255 18.5471 183.379 17.9399 183.502 17.3326C183.561 17.0427 183.62 16.7527 183.68 16.454C184.165 14.0386 184.595 11.6148 184.996 9.18403C185.43 6.61638 185.665 6.69602 188.239 6.68778Z" fill="#010101"/>
<path d="M469.586 6.69763C470.068 6.69894 470.068 6.69894 470.559 6.70028C471.102 6.70033 471.102 6.70033 471.657 6.70037C472.051 6.7024 472.445 6.70443 472.852 6.70653C473.253 6.70708 473.654 6.70764 474.068 6.70821C475.356 6.71043 476.644 6.71537 477.931 6.72036C478.802 6.72234 479.673 6.72413 480.544 6.72575C482.683 6.7301 484.823 6.73669 486.962 6.74497C489.749 14.645 492.52 22.5506 495.27 30.4633C495.571 31.3301 495.873 32.1968 496.175 33.0634C496.601 34.287 497.026 35.511 497.451 36.735C497.579 37.1026 497.707 37.4702 497.839 37.8489C497.957 38.1884 498.075 38.5279 498.196 38.8777C498.35 39.3205 498.35 39.3205 498.507 39.7723C498.764 40.5657 498.975 41.3588 499.167 42.1703C500.638 35.1103 502.082 28.047 503.442 20.9649C504.353 16.2195 505.301 11.4821 506.254 6.74497C511.971 6.74497 517.688 6.74497 523.578 6.74497C523.135 10.731 523.135 10.731 522.864 12.1742C522.773 12.6659 522.773 12.6659 522.68 13.1675C522.581 13.685 522.581 13.685 522.481 14.2129C522.412 14.5843 522.342 14.9557 522.271 15.3383C522.043 16.5497 521.814 17.7607 521.584 18.9716C521.424 19.8233 521.264 20.6749 521.103 21.5266C520.056 27.0675 518.968 32.5993 517.849 38.126C516.646 44.0644 515.527 50.0168 514.439 55.9772C514.377 56.3135 514.316 56.6497 514.252 56.9961C514.14 57.6056 514.029 58.2152 513.919 58.825C513.273 62.3434 512.504 65.8255 511.766 69.3297C505.53 69.3297 499.293 69.3297 492.868 69.3297C485.158 45.8075 485.158 45.8075 481.45 34.298C480.675 36.4069 480.242 38.5413 479.808 40.7388C479.728 41.1377 479.648 41.5365 479.565 41.9475C479.306 43.2433 479.049 44.5395 478.793 45.8358C478.616 46.725 478.438 47.6141 478.261 48.5033C476.886 55.433 475.599 62.3736 474.363 69.3297C468.647 69.3297 462.93 69.3297 457.04 69.3297C457.04 65.7876 457.04 65.7876 457.351 64.2852C457.42 63.9454 457.489 63.6056 457.56 63.2555C457.636 62.895 457.712 62.5345 457.79 62.1631C457.869 61.7768 457.948 61.3906 458.029 60.9926C458.199 60.1616 458.37 59.331 458.542 58.5005C459.003 56.2797 459.453 54.0567 459.904 51.8338C459.995 51.383 460.087 50.9322 460.181 50.4677C461.035 46.2507 461.826 42.0234 462.601 37.7913C463.743 31.566 464.95 25.3562 466.213 19.1544C466.336 18.5471 466.46 17.9399 466.583 17.3326C466.642 17.0427 466.701 16.7527 466.761 16.454C467.246 14.0387 467.676 11.6149 468.077 9.18405C468.485 6.76854 468.485 6.76854 469.586 6.69763Z" fill="#010101"/>
<path d="M67.982 6.69763C68.2959 6.69851 68.6098 6.69938 68.9331 6.70028C69.2878 6.70031 69.6425 6.70034 70.0079 6.70037C70.3934 6.7024 70.779 6.70443 71.1761 6.70653C71.5688 6.70708 71.9615 6.70764 72.3661 6.70821C73.6259 6.71043 74.8855 6.71537 76.1453 6.72036C76.997 6.72234 77.8488 6.72413 78.7006 6.72575C80.7935 6.7301 82.8864 6.73669 84.9792 6.74497C84.7675 9.65655 84.373 12.4723 83.7858 15.3307C83.7086 15.7149 83.6315 16.0991 83.552 16.495C83.3902 17.2983 83.2274 18.1013 83.0635 18.9042C82.8123 20.1352 82.5644 21.3669 82.3171 22.5987C82.1588 23.3824 82.0004 24.166 81.8418 24.9496C81.7676 25.3174 81.6933 25.6852 81.6169 26.0641C81.5124 26.5749 81.5124 26.5749 81.4058 27.0961C81.3145 27.5445 81.3145 27.5445 81.2213 28.0021C81.0421 28.7874 81.0421 28.7874 80.6484 29.9682C86.7549 29.9682 92.8614 29.9682 99.153 29.9682C99.4128 28.1497 99.6727 26.3312 99.9404 24.4576C100.212 22.9824 100.492 21.5139 100.792 20.0448C100.861 19.7022 100.93 19.3595 101.001 19.0065C101.253 17.7563 101.507 16.5066 101.761 15.2569C102.33 12.4479 102.898 9.63902 103.484 6.74497C109.46 6.74497 115.437 6.74497 121.595 6.74497C120.912 11.0672 120.235 15.34 119.35 19.6177C118.07 25.8357 116.86 32.0639 115.714 38.3079C114.459 45.1378 113.122 51.9488 111.74 58.7539C111.667 59.1104 111.595 59.4669 111.521 59.8343C111.388 60.4906 111.254 61.1467 111.12 61.8027C110.613 64.3063 110.204 66.8048 109.783 69.3297C103.807 69.3297 97.8301 69.3297 91.6724 69.3297C92.1153 65.3443 92.1153 65.3443 92.4722 63.4699C92.551 63.0526 92.6298 62.6352 92.711 62.2051C92.8371 61.5481 92.8371 61.5481 92.9658 60.8777C93.0526 60.4197 93.1395 59.9617 93.2289 59.4897C93.5045 58.0379 93.7818 56.5864 94.0593 55.1349C94.2473 54.1461 94.4352 53.1572 94.6229 52.1682C95.0814 49.7537 95.5424 47.3397 96.0033 44.9256C90.0267 44.9256 84.0501 44.9256 77.8924 44.9256C77.4782 47.288 77.4782 47.288 77.0557 49.6981C76.3012 53.9562 75.4954 58.2017 74.6442 62.4414C74.4919 63.2011 74.4919 63.2011 74.3364 63.9761C73.9739 65.7699 73.6118 67.554 73.1678 69.3297C67.3211 69.3297 61.4745 69.3297 55.4506 69.3297C55.4506 65.7876 55.4506 65.7876 55.7621 64.2852C55.8308 63.9454 55.8996 63.6056 55.9705 63.2555C56.0466 62.895 56.1227 62.5345 56.2011 62.1631C56.28 61.7768 56.3588 61.3906 56.44 60.9926C56.6097 60.1616 56.7808 59.331 56.953 58.5005C57.4134 56.2797 57.8636 54.0567 58.3143 51.8338C58.4059 51.383 58.4975 50.9322 58.5919 50.4677C59.4455 46.2507 60.2371 42.0234 61.0118 37.7913C62.1537 31.566 63.3604 25.3562 64.6239 19.1544C64.7473 18.5471 64.8705 17.9399 64.9936 17.3326C65.0525 17.0427 65.1113 16.7527 65.172 16.454C65.6571 14.0387 66.0872 11.6149 66.4877 9.18405C66.896 6.76903 66.896 6.76903 67.982 6.69763Z" fill="#010101"/>
<path d="M534.207 6.69652C534.555 6.69689 534.903 6.69725 535.262 6.69762C535.66 6.69708 536.058 6.69654 536.468 6.69598C537.128 6.69811 537.128 6.69811 537.802 6.70027C538.263 6.70021 538.724 6.70016 539.199 6.7001C540.466 6.70033 541.733 6.70231 543.001 6.70505C544.324 6.7075 545.647 6.70774 546.97 6.70821C549.477 6.70943 551.984 6.71266 554.491 6.71661C557.345 6.721 560.198 6.72317 563.052 6.72515C568.923 6.72927 574.795 6.7362 580.666 6.74496C580.613 7.01267 580.559 7.28038 580.503 7.5562C580.433 7.90875 580.362 8.26129 580.289 8.62452C580.219 8.97341 580.149 9.32231 580.077 9.68177C579.833 10.9111 579.607 12.143 579.385 13.3764C579.301 13.8415 579.216 14.3065 579.129 14.7856C578.954 15.7531 578.78 16.7207 578.606 17.6885C578.522 18.149 578.438 18.6094 578.352 19.0839C578.276 19.502 578.201 19.9201 578.123 20.3509C577.91 21.3087 577.91 21.3087 577.517 21.7023C576.611 21.7395 575.704 21.7485 574.797 21.747C574.513 21.7471 574.229 21.7471 573.936 21.7472C572.992 21.7469 572.049 21.7438 571.105 21.7407C570.452 21.74 569.8 21.7395 569.147 21.7391C567.426 21.7376 565.705 21.7337 563.984 21.7293C562.229 21.7253 560.474 21.7235 558.719 21.7215C555.273 21.7173 551.827 21.7106 548.382 21.7023C548.348 21.9227 548.314 22.143 548.28 22.3701C548.126 23.3695 547.971 24.3687 547.816 25.3678C547.736 25.888 547.736 25.888 547.655 26.4188C547.577 26.9192 547.577 26.9192 547.497 27.4297C547.45 27.7368 547.403 28.044 547.354 28.3604C547.201 29.181 547.201 29.181 546.807 30.3618C554.862 30.3618 562.918 30.3618 571.217 30.3618C570.43 36.266 570.43 36.266 568.855 43.7447C560.67 43.7447 552.484 43.7447 544.051 43.7447C543.921 45.0436 543.791 46.3426 543.657 47.6809C543.267 49.7592 542.878 51.8374 542.476 53.9787C552.35 53.9787 562.225 53.9787 572.398 53.9787C572.07 57.2576 571.605 60.413 571.02 63.6469C570.932 64.1515 570.843 64.6561 570.751 65.176C570.623 65.8933 570.623 65.8933 570.491 66.6251C570.413 67.0597 570.335 67.4943 570.255 67.9421C570.036 68.936 570.036 68.936 569.642 69.3297C569.02 69.3674 568.395 69.3776 567.771 69.377C567.164 69.3778 567.164 69.3778 566.545 69.3786C566.097 69.3772 565.65 69.3758 565.188 69.3743C564.486 69.3744 564.486 69.3744 563.768 69.3745C562.48 69.3743 561.192 69.3723 559.903 69.3696C558.558 69.3671 557.213 69.3669 555.868 69.3664C553.319 69.3652 550.77 69.362 548.221 69.358C545.32 69.3536 542.418 69.3514 539.517 69.3495C533.548 69.3454 527.579 69.3384 521.609 69.3297C521.586 67.6006 521.568 65.9841 521.921 64.2852C521.989 63.9454 522.058 63.6056 522.129 63.2555C522.205 62.895 522.281 62.5345 522.36 62.1631C522.438 61.7768 522.517 61.3906 522.598 60.9926C522.768 60.1616 522.939 59.331 523.112 58.5005C523.572 56.2796 524.022 54.0567 524.473 51.8338C524.564 51.383 524.656 50.9322 524.75 50.4677C525.604 46.2507 526.396 42.0234 527.17 37.7913C528.312 31.5659 529.519 25.3562 530.782 19.1544C530.906 18.5471 531.029 17.9399 531.152 17.3326C531.211 17.0427 531.27 16.7527 531.33 16.454C531.816 14.0387 532.246 11.6148 532.646 9.18404C533.055 6.76749 533.055 6.76749 534.207 6.69652Z" fill="#010101"/>
<path d="M10.6459 6.69652C11.2246 6.69707 11.2246 6.69707 11.815 6.69762C12.4767 6.69681 12.4767 6.69681 13.1518 6.69598C13.64 6.6974 14.1282 6.69881 14.6312 6.70027C15.3974 6.70019 15.3974 6.70019 16.1791 6.7001C17.5839 6.69998 18.9887 6.70231 20.3934 6.70505C21.86 6.7075 23.3266 6.70774 24.7931 6.70821C27.5721 6.70943 30.3511 6.71266 33.1301 6.71661C36.2931 6.721 39.4561 6.72317 42.6191 6.72515C49.1273 6.72927 55.6355 6.7362 62.1438 6.74496C62.0183 7.50071 61.8926 8.25644 61.7669 9.01216C61.697 9.43301 61.627 9.85385 61.555 10.2875C61.3321 11.6122 61.0949 12.9337 60.8488 14.2544C60.7319 14.884 60.7319 14.884 60.6125 15.5263C60.5169 16.0382 60.4213 16.55 60.3228 17.0773C60.0143 18.7335 59.7057 20.3896 59.3878 22.0959C53.5411 22.0959 47.6944 22.0959 41.6706 22.0959C41.4107 24.0443 41.1509 25.9927 40.8832 28.0001C40.6508 29.2922 40.4105 30.5726 40.1419 31.8563C40.0728 32.1954 40.0038 32.5344 39.9327 32.8837C39.7856 33.6057 39.6378 34.3276 39.4891 35.0493C39.0896 36.9914 38.6974 38.935 38.3056 40.8787C38.2252 41.2772 38.1448 41.6757 38.062 42.0863C37.2081 46.3384 36.4067 50.5999 35.6172 54.8643C35.5531 55.2097 35.4891 55.5551 35.423 55.911C35.2381 56.9089 35.0537 57.9069 34.8698 58.905C34.8182 59.1845 34.7667 59.464 34.7136 59.7519C34.1288 62.9417 33.5726 66.1359 33.0089 69.3297C27.0323 69.3297 21.0557 69.3297 14.898 69.3297C15.341 65.3436 15.341 65.3436 15.6117 63.9005C15.6725 63.5727 15.7334 63.2449 15.7961 62.9073C15.8616 62.5622 15.9271 62.2172 15.9945 61.8618C16.0641 61.49 16.1337 61.1182 16.2054 60.7351C16.4325 59.5241 16.6617 58.3135 16.8912 57.103C17.0504 56.258 17.2097 55.413 17.369 54.568C18.6773 47.6467 20.0404 40.7367 21.4421 33.8338C21.7693 32.2214 22.0925 30.6083 22.4114 28.9942C22.4827 28.6347 22.5539 28.2752 22.6272 27.9048C22.7651 27.208 22.9024 26.511 23.039 25.814C23.1013 25.4997 23.1636 25.1854 23.2278 24.8616C23.2825 24.5837 23.3372 24.3058 23.3935 24.0195C23.5597 23.2768 23.5597 23.2768 23.9534 22.0959C18.3666 22.0959 12.7798 22.0959 7.02368 22.0959C7.02368 20.0095 7.13535 18.4209 7.52659 16.4162C7.57809 16.1502 7.62959 15.8842 7.68265 15.6101C7.79098 15.0535 7.90056 14.4972 8.01133 13.9411C8.18127 13.0867 8.34674 12.2315 8.51165 11.3761C9.41384 6.76541 9.41384 6.76541 10.6459 6.69652Z" fill="#020202"/>
<path d="M376.261 6.69763C376.575 6.69851 376.889 6.69938 377.212 6.70028C377.567 6.70031 377.921 6.70034 378.287 6.70037C378.672 6.7024 379.058 6.70443 379.455 6.70653C379.848 6.70708 380.24 6.70764 380.645 6.70821C381.905 6.71043 383.164 6.71537 384.424 6.72036C385.276 6.72234 386.128 6.72413 386.979 6.72575C389.072 6.7301 391.165 6.73669 393.258 6.74497C393.059 9.31693 392.782 11.823 392.248 14.3466C392.187 14.644 392.126 14.9413 392.063 15.2476C391.933 15.8862 391.801 16.5246 391.669 17.1628C391.308 18.9013 390.956 20.6416 390.604 22.3819C390.53 22.7441 390.457 23.1063 390.381 23.4794C389.433 28.1845 388.566 32.9048 387.698 37.6253C386.694 43.0828 385.645 48.5286 384.596 53.9787C393.042 53.9787 401.487 53.9787 410.188 53.9787C409.333 59.1067 408.452 64.2319 407.432 69.3297C393.01 69.3297 378.588 69.3297 363.729 69.3297C363.729 65.7876 363.729 65.7876 364.041 64.2852C364.11 63.9454 364.178 63.6056 364.249 63.2555C364.325 62.895 364.402 62.5345 364.48 62.1631C364.559 61.7768 364.638 61.3906 364.719 60.9926C364.889 60.1616 365.06 59.331 365.232 58.5005C365.692 56.2797 366.142 54.0567 366.593 51.8338C366.685 51.383 366.776 50.9322 366.871 50.4677C367.724 46.2507 368.516 42.0234 369.291 37.7913C370.432 31.566 371.639 25.3562 372.903 19.1544C373.026 18.5471 373.149 17.9399 373.272 17.3326C373.331 17.0427 373.39 16.7527 373.451 16.454C373.936 14.0387 374.366 11.6149 374.767 9.18405C375.175 6.76903 375.175 6.76903 376.261 6.69763Z" fill="#010101"/>
<path d="M428.246 6.69763C428.727 6.69894 428.727 6.69894 429.218 6.70028C429.762 6.70033 429.762 6.70033 430.317 6.70037C430.711 6.7024 431.105 6.70443 431.511 6.70653C431.913 6.70708 432.314 6.70764 432.728 6.70821C434.016 6.71043 435.303 6.71537 436.591 6.72036C437.462 6.72234 438.333 6.72413 439.204 6.72575C441.343 6.7301 443.483 6.73669 445.622 6.74497C444.567 12.507 443.492 18.2646 442.374 24.0148C442.289 24.4535 442.289 24.4535 442.202 24.901C441.495 28.5335 440.775 32.1633 440.044 35.7909C439.971 36.1531 439.898 36.5152 439.823 36.8883C439.713 37.4361 439.713 37.4361 439.6 37.9949C439.45 38.7389 439.3 39.4828 439.15 40.2268C439.076 40.5942 439.002 40.9616 438.926 41.3401C437.624 47.8104 436.397 54.2932 435.213 60.7863C435.151 61.1258 435.089 61.4652 435.025 61.815C434.91 62.4417 434.796 63.0686 434.683 63.6957C434.632 63.9778 434.58 64.26 434.527 64.5507C434.461 64.911 434.461 64.911 434.395 65.2787C434.108 66.6379 433.754 67.9821 433.417 69.3297C427.57 69.3297 421.724 69.3297 415.7 69.3297C415.7 65.7876 415.7 65.7876 416.011 64.2852C416.08 63.9454 416.149 63.6056 416.22 63.2555C416.296 62.895 416.372 62.5345 416.45 62.1631C416.529 61.7768 416.608 61.3906 416.689 60.9926C416.859 60.1616 417.03 59.331 417.202 58.5005C417.663 56.2797 418.113 54.0567 418.563 51.8338C418.655 51.383 418.747 50.9322 418.841 50.4677C419.695 46.2507 420.486 42.0234 421.261 37.7913C422.403 31.566 423.61 25.3562 424.873 19.1544C424.996 18.5471 425.12 17.9399 425.243 17.3326C425.302 17.0427 425.361 16.7527 425.421 16.454C425.906 14.0387 426.336 11.6149 426.737 9.18405C427.145 6.76854 427.145 6.76854 428.246 6.69763Z" fill="#020202"/>
<path d="M145.559 6.69763C146.04 6.69894 146.04 6.69894 146.531 6.70028C147.075 6.70033 147.075 6.70033 147.63 6.70037C148.024 6.7024 148.418 6.70443 148.824 6.70653C149.226 6.70708 149.627 6.70764 150.041 6.70821C151.328 6.71043 152.616 6.71537 153.904 6.72036C154.775 6.72234 155.645 6.72413 156.516 6.72575C158.656 6.7301 160.795 6.73669 162.935 6.74497C161.88 12.507 160.804 18.2646 159.687 24.0148C159.601 24.4535 159.601 24.4535 159.514 24.901C158.807 28.5335 158.088 32.1633 157.357 35.7909C157.284 36.1531 157.211 36.5152 157.136 36.8883C157.025 37.4361 157.025 37.4361 156.913 37.9949C156.763 38.7389 156.613 39.4828 156.463 40.2268C156.389 40.5942 156.315 40.9616 156.239 41.3401C154.936 47.8104 153.709 54.2932 152.526 60.7863C152.464 61.1258 152.402 61.4652 152.338 61.815C152.223 62.4417 152.109 63.0686 151.996 63.6957C151.944 63.9778 151.893 64.26 151.839 64.5507C151.774 64.911 151.774 64.911 151.707 65.2787C151.421 66.6379 151.067 67.9821 150.73 69.3297C144.883 69.3297 139.036 69.3297 133.012 69.3297C133.012 65.7876 133.012 65.7876 133.324 64.2852C133.393 63.9454 133.461 63.6056 133.532 63.2555C133.608 62.895 133.685 62.5345 133.763 62.1631C133.842 61.7768 133.921 61.3906 134.002 60.9926C134.172 60.1616 134.343 59.331 134.515 58.5005C134.975 56.2797 135.425 54.0567 135.876 51.8338C135.968 51.383 136.059 50.9322 136.154 50.4677C137.007 46.2507 137.799 42.0234 138.574 37.7913C139.715 31.566 140.922 25.3562 142.186 19.1544C142.309 18.5471 142.432 17.9399 142.555 17.3326C142.614 17.0427 142.673 16.7527 142.734 16.454C143.219 14.0387 143.649 11.6149 144.05 9.18405C144.458 6.76854 144.458 6.76854 145.559 6.69763Z" fill="#020202"/>
<path d="M264.907 21.7023C277.022 21.4289 277.022 21.4289 280.656 24.8512C283.24 28.2827 283.49 31.1782 283.51 35.3558C283.518 35.7645 283.526 36.1732 283.535 36.5943C283.561 41.8146 281.846 46.6853 278.244 50.5346C274.27 54.2428 269.689 54.5472 264.464 54.4461C263.932 54.4402 263.4 54.4348 262.868 54.43C261.579 54.4162 260.29 54.3968 259.001 54.3723C259.127 49.3488 260.278 44.4896 261.29 39.5872C261.465 38.729 261.639 37.8708 261.813 37.0125C262.154 35.337 262.496 33.6618 262.839 31.9869C263.541 28.5611 264.224 25.1318 264.907 21.7023Z" fill="#FCFCFC"/>
<path d="M200.731 20.9151C202.446 20.8807 204.16 20.8598 205.874 20.8413C206.6 20.8265 206.6 20.8265 207.341 20.8113C212.611 20.7687 212.611 20.7687 214.804 22.7002C216.398 24.8492 216.781 26.1308 216.48 28.7874C215.759 31.1038 214.542 32.5719 212.543 33.9044C210.65 34.5548 209.016 34.7862 207.02 34.7685C206.261 34.7647 206.261 34.7647 205.486 34.7608C204.959 34.7542 204.433 34.7476 203.906 34.7408C203.368 34.7369 202.831 34.7333 202.293 34.7301C200.985 34.7208 199.677 34.7079 198.369 34.6916C198.649 31.6895 199.187 28.7673 199.772 25.8107C199.864 25.3386 199.956 24.8664 200.051 24.38C200.276 23.2248 200.503 22.0698 200.731 20.9151Z" fill="#F9F9F9"/>
</svg>
