<svg xmlns="http://www.w3.org/2000/svg" version="1.1" viewBox="102.366 70.82959641255606 909.3149999999999 110.05829596412555" style="max-height: 500px" width="909.3149999999999" height="110.05829596412555">
<path transform="translate(0,0)" fill="#FEFEFE" d="M0 0 C359.37 0 718.74 0 1089 0 C1089 80.19 1089 160.38 1089 243 C729.63 243 370.26 243 0 243 C0 162.81 0 82.62 0 0 Z"/>
<path transform="translate(499,80)" fill="#030303" d="M0 0 C56.61038961 0 56.61038961 0 69.1875 12.10546875 C78.81403714 22.38675198 81.35856812 32.43079015 81.375 46.25 C81.39949219 47.31863281 81.42398438 48.38726562 81.44921875 49.48828125 C81.49131034 61.03540684 77.90799896 71.48418221 70.1015625 80.09375 C62.66284712 87.29077427 52.70560957 92.14168175 42.23144531 92.11352539 C41.2777002 92.11340454 40.32395508 92.11328369 39.34130859 92.11315918 C37.84978271 92.10548523 37.84978271 92.10548523 36.328125 92.09765625 C35.40821777 92.09664917 34.48831055 92.09564209 33.54052734 92.09460449 C30.11033885 92.08937985 26.68016815 92.07541858 23.25 92.0625 C15.5775 92.041875 7.905 92.02125 0 92 C0 61.64 0 31.28 0 0 Z"/>
<path transform="translate(399,80)" fill="#040404" d="M0 0 C7.54875 -0.04125 15.0975 -0.0825 22.875 -0.125 C25.23769043 -0.14320801 27.60038086 -0.16141602 30.03466797 -0.18017578 C31.93717218 -0.18602478 33.83967892 -0.19111937 35.7421875 -0.1953125 C36.70584229 -0.20554443 37.66949707 -0.21577637 38.66235352 -0.22631836 C49.58715791 -0.22908904 60.74519793 1.28859109 69.11328125 8.9296875 C74.93737805 15.32051835 76.4191162 20.38840107 76.25 28.9921875 C75.57298762 37.1374927 71.97868995 41.60641152 65.875 46.8125 C64 48 64 48 61 48 C61.86606856 50.20270705 61.86606856 50.20270705 64.25 51.25 C69.64683666 54.6843506 72.393471 58.91425033 74 65 C74.48855651 68.67783593 74.78173153 72.36368064 75.0625 76.0625 C75.21758181 78.01191684 75.3750542 79.96114529 75.53515625 81.91015625 C75.600979 82.76746338 75.66680176 83.62477051 75.73461914 84.50805664 C76.00282212 87.02649991 76.50329976 89.5164988 77 92 C69.74 92 62.48 92 55 92 C52.75444399 84.14055395 52.75444399 84.14055395 52.4375 80.9921875 C52.36273438 80.31542969 52.28796875 79.63867188 52.2109375 78.94140625 C52.06952321 77.55606993 51.92890692 76.17065193 51.7890625 74.78515625 C51.08533968 68.4395177 49.94901661 64.1991656 45 60 C42.27498092 59.09166031 40.37766029 58.81640015 37.55078125 58.68359375 C36.78677002 58.64548584 36.02275879 58.60737793 35.2355957 58.56811523 C34.27097412 58.52501221 33.30635254 58.48190918 32.3125 58.4375 C29.239375 58.293125 26.16625 58.14875 23 58 C23 69.22 23 80.44 23 92 C15.41 92 7.82 92 0 92 C0 61.64 0 31.28 0 0 Z"/>
<path transform="translate(827,80)" fill="#050505" d="M0 0 C7.59 0 15.18 0 23 0 C30.39294577 9.62477846 30.39294577 9.62477846 32.30078125 14.1328125 C35.02852644 20.21597977 38.34941892 25.81185228 41.8125 31.5 C42.84311223 33.23764892 43.87053271 34.97719542 44.89453125 36.71875 C45.91933594 38.4615625 46.94414063 40.204375 48 42 C50.31 45.96 52.62 49.92 55 54 C55.33 36.18 55.66 18.36 56 0 C63.59 0 71.18 0 79 0 C79 30.36 79 60.72 79 92 C71.41 92 63.82 92 56 92 C52.50390913 86.7558637 49.13694273 81.68195526 45.9765625 76.26953125 C45.62669281 75.67178391 45.27682312 75.07403656 44.91635132 74.45817566 C43.81667524 72.57776478 42.72083792 70.69514955 41.625 68.8125 C40.90127695 67.57473219 40.17731959 66.33710135 39.453125 65.09960938 C26.29307748 42.58615496 26.29307748 42.58615496 23 36 C22.67 54.48 22.34 72.96 22 92 C14.74 92 7.48 92 0 92 C0 61.64 0 31.28 0 0 Z"/>
<path transform="translate(210,80)" fill="#040404" d="M0 0 C7.59 0 15.18 0 23 0 C23 11.55 23 23.1 23 35 C33.56 35 44.12 35 55 35 C55 23.45 55 11.9 55 0 C62.59 0 70.18 0 78 0 C78 30.36 78 60.72 78 92 C70.41 92 62.82 92 55 92 C55 79.46 55 66.92 55 54 C44.44 54 33.88 54 23 54 C23 66.54 23 79.08 23 92 C15.41 92 7.82 92 0 92 C0 61.64 0 31.28 0 0 Z"/>
<path transform="translate(932,80)" fill="#030303" d="M0 0 C23.1 0 46.2 0 70 0 C70 6.27 70 12.54 70 19 C54.49 19 38.98 19 23 19 C23 24.61 23 30.22 23 36 C36.2 36 49.4 36 63 36 C63 41.61 63 47.22 63 53 C49.8 53 36.6 53 23 53 C23 59.6 23 66.2 23 73 C38.51 73 54.02 73 70 73 C70 79.27 70 85.54 70 92 C46.9 92 23.8 92 0 92 C0 61.64 0 31.28 0 0 Z"/>
<path transform="translate(111,80)" fill="#080808" d="M0 0 C25.41 0 50.82 0 77 0 C77 6.6 77 13.2 77 20 C68.09 20 59.18 20 50 20 C50 43.76 50 67.52 50 92 C42.41 92 34.82 92 27 92 C27 68.24 27 44.48 27 20 C18.09 20 9.18 20 0 20 C0 13.4 0 6.8 0 0 Z"/>
<path transform="translate(673,80)" fill="#030303" d="M0 0 C7.59 0 15.18 0 23 0 C23 24.09 23 48.18 23 73 C36.53 73 50.06 73 64 73 C64 79.27 64 85.54 64 92 C42.88 92 21.76 92 0 92 C0 61.64 0 31.28 0 0 Z"/>
<path transform="translate(760,80)" fill="#050505" d="M0 0 C7.59 0 15.18 0 23 0 C23 30.36 23 60.72 23 92 C15.41 92 7.82 92 0 92 C0 61.64 0 31.28 0 0 Z"/>
<path transform="translate(332,80)" fill="#050505" d="M0 0 C7.59 0 15.18 0 23 0 C23 30.36 23 60.72 23 92 C15.41 92 7.82 92 0 92 C0 61.64 0 31.28 0 0 Z"/>
<path transform="translate(522,99)" fill="#FBFBFB" d="M0 0 C20.07142857 0 20.07142857 0 27.875 4.75 C34.91740643 12.20666563 36.43343712 20.73654425 36.25 30.7109375 C35.65626406 38.52227598 33.63321132 44.50091276 28 50 C19.16997431 56.24562793 11.68031665 54 0 54 C0 36.18 0 18.36 0 0 Z"/>
<path transform="translate(422,98)" fill="#F9F9F9" d="M0 0 C3.34125 -0.061875 6.6825 -0.12375 10.125 -0.1875 C11.68758545 -0.22846802 11.68758545 -0.22846802 13.28173828 -0.27026367 C18.59090995 -0.31774905 22.48711716 -0.12808857 27 3 C29.80295101 5.85639711 30.45107698 7.96862006 30.5 11.9375 C30.38563436 15.81449509 30.13894286 16.81088333 27.75 20.0625 C23.80888933 22.83919161 20.76854508 23.12663747 16.015625 23.09765625 C15.17290039 23.09515869 14.33017578 23.09266113 13.46191406 23.09008789 C12.40198242 23.08098389 11.34205078 23.07187988 10.25 23.0625 C6.8675 23.041875 3.485 23.02125 0 23 C0 15.41 0 7.82 0 0 Z"/>
</svg>